<svg width="24" height="24" viewBox="0 0 24 24" fill="none" xmlns="http://www.w3.org/2000/svg">
<path d="M23.286 1.82263H0.714047C0.319687 1.82263 0 2.14232 0 2.53668V17.8218C0 18.2162 0.319687 18.5359 0.714047 18.5359H8.56856V20.7493H5.952C5.55764 20.7493 5.23795 21.0689 5.23795 21.4633C5.23795 21.8577 5.55764 22.1773 5.952 22.1773H18.0484C18.4427 22.1773 18.7624 21.8577 18.7624 21.4633C18.7624 21.0689 18.4427 20.7493 18.0484 20.7493H15.4318V18.5359H23.286C23.6803 18.5359 24 18.2162 24 17.8218V2.53668C24 2.14232 23.6803 1.82263 23.286 1.82263ZM14.0036 20.7493H9.99661V18.5359H14.0036V20.7493ZM22.5719 17.1078H1.42809V15.8916H22.5719V17.1078H22.5719ZM22.5719 14.4635H1.42809V3.25073H22.5719V14.4635H22.5719Z" fill="#919FB3"/>
</svg>