<svg width="24" height="24" viewBox="0 0 24 24" fill="none" xmlns="http://www.w3.org/2000/svg">
<path d="M23.6993 13.9652C23.6993 13.5696 23.3785 13.2488 22.9828 13.2488H21.5489V3.48C21.5489 1.56112 19.9877 0 18.0688 0C16.15 0 14.5888 1.56112 14.5888 3.48V4.78612C14.5888 5.1818 14.9097 5.50261 15.3053 5.50261C15.701 5.50261 16.0218 5.1818 16.0218 4.78612V3.48C16.0218 2.35125 16.9401 1.43297 18.0688 1.43297C19.1976 1.43297 20.1159 2.35125 20.1159 3.48V13.2487H1.01727C0.621594 13.2487 0.300781 13.5695 0.300781 13.9652C0.300781 17.1988 2.34598 19.9634 5.21066 21.0343C4.65959 21.6136 4.31877 22.4079 4.31877 23.2835C4.31877 23.6791 4.63958 24 5.03525 24C5.43092 24 5.75173 23.6791 5.75173 23.2835C5.75173 22.3051 6.49822 21.5092 7.41584 21.5092C7.44955 21.5092 16.5506 21.5092 16.5843 21.5092C17.5019 21.5092 18.2485 22.3051 18.2485 23.2835C18.2485 23.6791 18.5693 24 18.965 24C19.3606 24 19.6814 23.6791 19.6814 23.2835C19.6814 22.408 19.3406 21.6136 18.7895 21.0343C21.6542 19.9635 23.6993 17.1988 23.6993 13.9652ZM16.1553 20.0763H7.84484C4.71744 20.0763 2.13125 17.7151 1.77552 14.6817H22.2246C21.8689 17.7151 19.2826 20.0763 16.1553 20.0763Z" fill="#919FB3"/>
<path d="M15.3063 6.74583C14.9107 6.74583 14.5898 7.06665 14.5898 7.46232V8.08327C14.5898 8.47894 14.9107 8.79976 15.3063 8.79976C15.702 8.79976 16.0228 8.47894 16.0228 8.08327V7.46232C16.0228 7.0666 15.702 6.74583 15.3063 6.74583Z" fill="#919FB3"/>
<path d="M15.3063 10.185C14.9107 10.185 14.5898 10.5058 14.5898 10.9014V11.5224C14.5898 11.9181 14.9107 12.2389 15.3063 12.2389C15.702 12.2389 16.0228 11.9181 16.0228 11.5224V10.9014C16.0228 10.5057 15.702 10.185 15.3063 10.185Z" fill="#919FB3"/>
</svg>